<?xml version="1.0" standalone="no"?>
<!DOCTYPE svg PUBLIC "-//W3C//DTD SVG 20010904//EN"
 "http://www.w3.org/TR/2001/REC-SVG-20010904/DTD/svg10.dtd">
<svg version="1.0" xmlns="http://www.w3.org/2000/svg"
 width="256.000000pt" height="256.000000pt" viewBox="0 0 256.000000 256.000000"
 preserveAspectRatio="xMidYMid meet">
<metadata>
Created by potrace 1.14, written by Peter Selinger 2001-2017
</metadata>
<g transform="translate(0.000000,256.000000) scale(0.100000,-0.100000)"
fill="#000000" stroke="none">
<path d="M1470 2090 c-13 -8 -10 -19 18 -75 29 -59 34 -65 52 -55 19 10 19 12
-12 75 -34 69 -35 70 -58 55z"/>
<path d="M1872 2039 c-26 -48 -31 -64 -21 -75 8 -10 15 -11 25 -3 21 17 66
110 60 125 -11 28 -32 13 -64 -47z"/>
<path d="M1689 2083 c-1 -5 -3 -30 -5 -56 -4 -45 -3 -48 18 -45 20 3 23 10 26
56 3 47 2 52 -17 52 -12 0 -21 -3 -22 -7z"/>
<path d="M1509 1864 l-21 -46 63 -64 63 -64 -30 0 c-65 0 -201 -53 -273 -108
l-34 -26 -36 23 c-259 160 -566 133 -756 -67 -120 -125 -188 -318 -180 -512 9
-230 102 -390 276 -473 193 -93 397 -92 607 4 64 29 68 30 92 14 71 -46 158
-72 270 -83 246 -22 400 17 517 134 125 126 195 316 188 514 -2 52 -6 104 -8
115 -39 162 -103 268 -214 353 -50 39 -154 87 -208 98 l-39 7 44 41 c25 23 56
54 69 68 l23 26 -33 44 -34 43 -163 3 -163 3 -20 -47z m89 -25 c-2 -6 -7 -10
-11 -10 -4 1 -16 1 -27 1 -18 0 -19 3 -10 20 9 17 14 18 31 9 11 -5 19 -15 17
-20z m161 15 c11 -11 -22 -28 -57 -29 -33 -1 -61 16 -62 36 0 7 112 1 119 -7z
m86 -5 c9 -13 3 -19 -24 -24 -18 -3 -20 -1 -11 16 12 21 25 25 35 8z m-206
-86 c-7 -10 -14 -19 -15 -21 0 -1 -9 7 -19 18 -18 20 -17 20 15 20 29 0 31 -2
19 -17z m164 -5 c-18 -18 -24 -19 -37 -8 -25 20 -19 30 21 30 l37 0 -21 -22z
m-79 -24 c22 -31 9 -45 -33 -37 -34 6 -35 7 -16 37 21 32 25 32 49 0z m84 -98
c299 -80 458 -360 391 -688 -23 -118 -76 -223 -149 -301 -101 -109 -211 -150
-390 -146 -159 3 -270 28 -350 79 -160 103 -252 376 -203 600 16 69 70 200 84
200 5 0 19 -16 32 -36 l25 -35 -19 -48 c-56 -150 -39 -350 42 -468 100 -145
287 -214 480 -177 206 39 341 209 353 447 14 270 -141 459 -388 472 -99 5
-237 -18 -297 -49 l-50 -25 -29 32 -29 32 26 22 c37 30 122 71 185 87 69 19
219 20 286 2z m-746 -22 c176 -56 303 -181 364 -361 23 -67 27 -95 28 -203 0
-102 -4 -138 -22 -196 -12 -40 -30 -81 -39 -93 l-18 -22 -34 35 -35 36 23 64
c81 231 2 482 -192 607 -131 85 -300 97 -433 32 -233 -114 -341 -482 -208
-709 30 -52 108 -126 160 -152 130 -65 322 -61 484 11 18 8 77 -60 64 -73 -12
-12 -152 -67 -189 -75 -64 -14 -216 -13 -277 1 -93 22 -204 79 -258 133 -82
82 -132 222 -133 371 0 154 26 249 106 377 125 202 375 291 609 217z m-22
-132 c30 -12 68 -32 83 -45 l28 -22 -35 -75 c-51 -110 -66 -184 -62 -320 4
-114 17 -174 60 -273 l17 -38 -46 -20 c-60 -27 -168 -46 -230 -42 -77 5 -179
40 -227 76 -101 77 -155 208 -145 347 16 200 129 366 288 424 61 22 195 16
269 -12z m770 -8 c180 -51 278 -237 245 -468 -21 -146 -106 -266 -232 -323
-68 -31 -194 -42 -274 -23 -60 14 -132 47 -127 58 62 117 79 196 74 352 -3
131 -28 234 -76 312 -11 18 -20 36 -20 40 0 17 102 52 184 63 104 13 149 11
226 -11z m-500 -339 c6 -37 9 -92 6 -121 -6 -61 -26 -134 -37 -134 -32 0 -48
256 -20 334 l14 39 13 -25 c7 -14 18 -56 24 -93z"/>
</g>
</svg>
